<svg width="200" height="62" viewBox="0 0 200 62" fill="none" xmlns="http://www.w3.org/2000/svg">
<g clip-path="url(#clip0)">
<path d="M100.984 34.0059C105.974 28.665 110.515 23.9817 114.803 19.1275C115.382 18.4008 116.142 17.8282 117.013 17.4634C117.883 17.0987 118.835 16.9538 119.78 17.0424C123.136 17.1871 126.499 17.0819 130.672 17.0819C124.906 23.2911 119.78 29.0596 114.334 34.5453C112.21 36.6896 112.591 37.8735 114.511 39.8073C120.549 45.8587 126.39 52.1007 132.946 58.9348C128.044 58.9348 123.939 58.9875 119.834 58.9019C118.602 58.9019 117.989 57.6983 117.241 56.9287C112.005 51.489 106.804 46.0231 100.984 39.9191C100.984 45.6219 100.834 50.5813 101.045 55.5277C101.161 58.1587 100.582 59.1387 97.6415 59.073C90.017 58.8954 90.017 59.073 90.017 51.7127C90.017 35.8279 90.0783 19.9497 89.9489 4.07148C89.9489 1.44046 90.7114 0.782696 93.3527 0.815584C101.004 0.947135 101.011 0.815584 101.011 8.05089C100.991 16.4504 100.984 24.8302 100.984 34.0059Z" fill="#F05D2D"/>
<path d="M45.0594 61.9869C43.4119 61.5265 42.3363 61.2765 41.2675 60.9213C36.3797 59.2638 31.7846 58.3758 26.2568 59.5598C14.2482 62.125 2.43028 53.765 0.388003 42.3529C-1.77681 30.441 5.7592 18.95 17.3321 16.5229C29.8785 13.8918 42.0913 21.0811 44.9436 32.8944C46.0192 37.3474 45.992 41.9254 43.8272 46.0495C42.1866 49.1672 42.2955 52.0153 43.2894 55.1331C43.9293 57.1853 44.3718 59.3098 45.0594 61.9869ZM34.0992 50.0355C33.0632 47.0528 33.0274 43.8304 33.997 40.8269C34.7672 38.4783 34.7291 35.9518 33.8884 33.6259C33.0477 31.3 31.4497 29.2998 29.3338 27.925C27.2179 26.5502 24.698 25.8748 22.1514 25.9999C19.6049 26.125 17.1688 27.0439 15.2081 28.619C11.1236 32.0327 9.76204 38.2682 12.0426 43.3724C14.0236 47.8649 18.5506 50.6801 23.7788 49.9105C27.2167 49.4238 30.5116 48.6345 34.0992 50.0421V50.0355Z" fill="#F05D2D"/>
<path d="M155.513 61.9407C154.832 61.0265 155.281 60.3884 155.444 59.8293C157.024 54.3634 157.412 49.3053 155.39 43.4775C151.38 31.9076 159.332 19.7326 171.64 16.7201C175.015 15.8944 178.541 15.8281 181.947 16.5261C185.353 17.2241 188.548 18.6679 191.285 20.7463C194.023 22.8247 196.231 25.4824 197.738 28.5147C199.246 31.5469 200.014 34.873 199.982 38.2369C199.95 41.6008 199.12 44.9129 197.555 47.9181C195.991 50.9233 193.733 53.5415 190.957 55.5713C188.18 57.6011 184.959 58.9883 181.54 59.6262C178.122 60.264 174.597 60.1355 171.238 59.2505C168.661 58.4738 165.887 58.5713 163.375 59.5268C160.788 60.5003 158.079 61.1646 155.513 61.9407ZM165.166 50.7589C169.25 48.8975 172.348 49.1408 175.622 49.917C179.026 50.7392 182.334 49.7065 185.023 47.286C189.326 43.4447 190.245 36.2028 187.066 31.3025C185.619 29.0512 183.391 27.3698 180.78 26.5578C178.17 25.7459 175.345 25.8562 172.811 26.8692C170.097 27.9412 167.891 29.9455 166.616 32.496C165.342 35.0465 165.089 37.9625 165.908 40.6821C166.946 44.0309 166.682 47.6309 165.166 50.8049V50.7589Z" fill="#F05D2D"/>
<path d="M64.7878 60.0135C60.4582 60.0859 55.8971 58.2573 52.1325 54.5344C51.0161 53.4294 50.5463 52.4559 52.0372 51.3246C52.3669 51.0253 52.6697 50.6997 52.9426 50.3511C54.2633 48.9961 55.3457 47.1018 56.9659 46.4374C58.9264 45.6284 59.9068 48.2397 61.595 48.9567C63.6918 49.8512 65.6796 50.8181 68.0758 50.2261C69.4374 49.8775 70.6355 49.2329 71.0167 47.8122C71.3979 46.3914 70.5878 45.4311 69.5735 44.701C68.3107 43.7839 66.9666 42.9761 65.557 42.287C62.7251 40.8991 59.8591 39.5573 57.422 37.5709C53.5008 34.394 51.3769 30.4672 52.6567 25.4156C53.9365 20.364 57.422 17.5949 62.4392 16.457C68.7838 15.0165 74.2707 16.7464 79.0497 20.9034C80.6222 22.2715 80.8673 23.5344 78.9748 24.8039C78.4298 25.2 77.9441 25.667 77.5316 26.1918C75.4893 28.6715 73.5151 30.1909 70.5946 27.0929C70.0104 26.5632 69.3137 26.1629 68.553 25.9198C67.7924 25.6767 66.9861 25.5966 66.1902 25.6853C64.747 25.7642 63.3446 26.1325 62.9633 27.5993C62.5821 29.0661 63.7054 30.0396 64.958 30.6842C67.7559 32.1247 70.6219 33.4402 73.379 34.9399C77.2321 37.0381 80.4452 39.7086 81.2689 44.234C82.9776 53.3242 76.3743 60.0135 64.7878 60.0135Z" fill="#F05D2D"/>
<path d="M135.764 37.8867C135.764 31.7696 135.859 25.6459 135.716 19.5353C135.668 17.4568 136.397 17.003 138.439 16.9701C147.016 16.8188 147.01 16.7596 147.01 24.9815C147.01 35.3609 146.942 45.7403 147.064 56.1131C147.064 58.4284 146.383 59.0598 144.001 59.0532C135.784 59.0532 135.784 59.1256 135.784 51.3246L135.764 37.8867Z" fill="#F16234"/>
<path d="M134.382 6.6169C134.359 5.74033 134.521 4.86849 134.859 4.05453C135.196 3.24057 135.702 2.50152 136.345 1.88242C136.987 1.26332 137.754 0.77715 138.597 0.453498C139.44 0.129846 140.343 -0.024493 141.25 -0.000113997C142.184 -0.0192995 143.113 0.139904 143.983 0.468352C144.853 0.796799 145.647 1.288 146.32 1.91382C146.993 2.53963 147.532 3.28771 147.905 4.11511C148.278 4.94251 148.478 5.83294 148.494 6.73529C148.485 8.56371 147.729 10.3147 146.39 11.607C145.051 12.8993 143.238 13.6282 141.346 13.6351C140.41 13.6207 139.487 13.4271 138.629 13.0657C137.771 12.7043 136.996 12.1822 136.349 11.5295C135.701 10.8769 135.194 10.1067 134.856 9.2635C134.518 8.42026 134.357 7.52073 134.382 6.6169V6.6169Z" fill="#F05D2D"/>
<path d="M34.0993 50.042C30.5117 48.6344 27.2168 49.4237 23.779 49.9302C18.5507 50.6997 14.0237 47.8845 12.0427 43.3921C9.78259 38.2879 11.1237 32.0524 15.2082 28.6386C17.1689 27.0636 19.605 26.1447 22.1515 26.0196C24.6981 25.8945 27.218 26.5699 29.3339 27.9447C31.4498 29.3195 33.0478 31.3196 33.8885 33.6455C34.7292 35.9715 34.7673 38.4979 33.9972 40.8466C33.0305 43.8459 33.0662 47.0633 34.0993 50.042V50.042Z" fill="#FEFEFE"/>
<path d="M165.165 50.8051C166.666 47.6381 166.923 44.0515 165.887 40.7151C165.069 37.9955 165.321 35.0795 166.596 32.529C167.87 29.9785 170.077 27.9742 172.79 26.9022C175.324 25.8892 178.149 25.7789 180.76 26.5908C183.37 27.4028 185.598 29.0843 187.045 31.3355C190.245 36.2358 189.326 43.4777 185.003 47.319C182.28 49.7198 179.026 50.7525 175.601 49.95C172.347 49.1673 169.284 48.9239 165.165 50.8051Z" fill="#FEFEFE"/>
</g>
<defs>
<clipPath id="clip0">
<rect width="200" height="62" fill="white"/>
</clipPath>
</defs>
</svg>
