<svg width="15" height="18" viewBox="0 0 15 18" fill="none" xmlns="http://www.w3.org/2000/svg">
<path d="M12.6049 0.000167459H1.68324V0.000167459C0.753698 0.000167459 0 0.753866 0 1.68341V1.68341V16.3169C0 16.7634 0.177341 17.1915 0.493011 17.5072C0.80868 17.8228 1.23682 18.0002 1.68324 18.0002H12.6049C13.0513 18.0002 13.4794 17.8228 13.7951 17.5072C14.1108 17.1915 14.2881 16.7634 14.2881 16.3169V1.68341V1.68341C14.2881 0.753798 13.5345 0.000167459 12.6049 0.000167459V0.000167459ZM2.81676 15.1153C2.81676 13.9356 4.60216 13.9331 4.60216 15.1153C4.60216 16.2975 2.81676 16.2975 2.81676 15.1153ZM2.81676 11.8169C2.81676 10.6372 4.60216 10.6348 4.60216 11.8169C4.60216 12.9991 2.81676 12.9991 2.81676 11.8169ZM2.81676 8.51855C2.81676 7.33882 4.60216 7.33882 4.60216 8.51855C4.60216 9.69828 2.81676 9.70071 2.81676 8.51368V8.51855ZM6.25135 15.1153C6.25135 13.9356 8.03676 13.9331 8.03676 15.1153C8.03676 16.2975 6.25135 16.2975 6.25135 15.1153ZM6.25135 11.8169C6.25135 10.6372 8.03676 10.6348 8.03676 11.8169C8.03676 12.9991 6.25135 12.9991 6.25135 11.8169ZM7.14405 9.41125C5.96432 9.41125 5.96189 7.62584 7.14405 7.62584C8.32622 7.62584 8.32622 9.41125 7.14405 9.41125ZM10.5787 16.008C9.39892 16.008 9.39892 14.2226 10.5787 14.2226C11.7584 14.2226 11.7657 16.008 10.5787 16.008ZM9.68595 11.8169C9.68595 10.6372 11.4714 10.6348 11.4714 11.8169C11.4714 12.9991 9.68595 12.9991 9.68595 11.8169ZM9.68595 8.51855C9.68595 7.33882 11.4714 7.33882 11.4714 8.51855C11.4714 9.69828 9.68595 9.70071 9.68595 8.51368V8.51855ZM11.61 3.76071C11.61 3.89838 11.5829 4.03471 11.5302 4.1619C11.4775 4.2891 11.4003 4.40467 11.3029 4.50202C11.2056 4.59937 11.09 4.6766 10.9628 4.72928C10.8356 4.78197 10.6993 4.80909 10.5616 4.80909H3.73865C3.4606 4.80909 3.19394 4.69863 2.99733 4.50202C2.80073 4.30541 2.69027 4.03875 2.69027 3.76071V3.45179C2.69027 3.31423 2.71741 3.17802 2.77012 3.05096C2.82284 2.9239 2.9001 2.80849 2.99748 2.71133C3.09486 2.61418 3.21046 2.53718 3.33764 2.48476C3.46482 2.43234 3.60109 2.40552 3.73865 2.40584H10.5738C10.7113 2.40552 10.8476 2.43234 10.9748 2.48476C11.102 2.53718 11.2176 2.61418 11.315 2.71133C11.4123 2.80849 11.4896 2.9239 11.5423 3.05096C11.595 3.17802 11.6222 3.31423 11.6222 3.45179L11.61 3.76071Z" fill="#BDBDBD"/>
</svg>
