<svg width="17" height="17" viewBox="0 0 17 17" fill="none" xmlns="http://www.w3.org/2000/svg">
<path d="M15.2983 11.5655L12.9002 11.2917C12.3243 11.2256 11.7578 11.4239 11.3518 11.8299L9.61464 13.567C6.94277 12.2075 4.7524 10.0266 3.39287 7.34527L5.13949 5.59865C5.54547 5.19267 5.74373 4.6262 5.67764 4.05029L5.40385 1.6711C5.29055 0.717533 4.48805 0 3.52505 0H1.89171C0.824855 0 -0.0626204 0.887475 0.00346821 1.95433C0.503853 10.0171 6.95221 16.4561 15.0056 16.9564C16.0724 17.0225 16.9599 16.1351 16.9599 15.0682V13.4349C16.9693 12.4813 16.2518 11.6788 15.2983 11.5655V11.5655Z" fill="white"/>
</svg>
