<svg width="18" height="17" viewBox="0 0 18 17" fill="none" xmlns="http://www.w3.org/2000/svg">
<path d="M0.301464 5.39909H17.6985C17.7654 5.39943 17.8305 5.37739 17.8835 5.33649C17.9364 5.29559 17.9741 5.23816 17.9907 5.17335C18.0072 5.10853 18.0016 5.04004 17.9748 4.97877C17.9479 4.9175 17.9014 4.86696 17.8425 4.83519L9.14398 0.0359939C9.09966 0.0123616 9.05022 0 9 0C8.94978 0 8.90033 0.0123616 8.85602 0.0359939L0.157489 4.83519C0.0986194 4.86696 0.0520607 4.9175 0.0252142 4.97877C-0.00163225 5.04004 -0.00722561 5.10853 0.00932329 5.17335C0.0258722 5.23816 0.0636135 5.29559 0.116547 5.33649C0.169481 5.37739 0.234569 5.39943 0.301464 5.39909V5.39909ZM9 1.7997C9.17797 1.7997 9.35195 1.85247 9.49993 1.95135C9.64791 2.05023 9.76324 2.19076 9.83135 2.35519C9.89946 2.51961 9.91728 2.70054 9.88256 2.8751C9.84784 3.04965 9.76213 3.20999 9.63629 3.33583C9.51044 3.46168 9.3501 3.54738 9.17555 3.5821C9.001 3.61682 8.82007 3.599 8.65564 3.5309C8.49122 3.46279 8.35068 3.34745 8.2518 3.19947C8.15293 3.0515 8.10015 2.87752 8.10015 2.69955C8.10015 2.46089 8.19496 2.23201 8.36371 2.06326C8.53247 1.8945 8.76135 1.7997 9 1.7997Z" fill="white"/>
<path d="M17.6986 14.9975H17.0987V14.0976C17.0987 14.0181 17.0671 13.9418 17.0108 13.8855C16.9546 13.8293 16.8783 13.7977 16.7987 13.7977H1.20134C1.12178 13.7977 1.04549 13.8293 0.98924 13.8855C0.932989 13.9418 0.901387 14.0181 0.901387 14.0976V14.9975H0.301488C0.221936 14.9975 0.145643 15.0291 0.0893914 15.0853C0.03314 15.1416 0.00153828 15.2179 0.00153828 15.2974V16.4972C0.00153828 16.5768 0.03314 16.6531 0.0893914 16.7093C0.145643 16.7656 0.221936 16.7972 0.301488 16.7972H17.6986C17.7781 16.7972 17.8544 16.7656 17.9107 16.7093C17.9669 16.6531 17.9985 16.5768 17.9985 16.4972V15.2974C17.9985 15.2179 17.9669 15.1416 17.9107 15.0853C17.8544 15.0291 17.7781 14.9975 17.6986 14.9975Z" fill="white"/>
<path d="M10.4281 13.1978L9.90587 6.64388L10.1638 5.99899H7.83622L8.09418 6.64388L7.57197 13.1978H10.4281Z" fill="white"/>
<path d="M13.2353 5.99899L13.4933 6.64388L12.9711 13.1978H15.8272L15.305 6.64388L15.5629 5.99899H13.2353Z" fill="white"/>
<path d="M5.029 13.1978L4.50678 6.64388L4.76474 5.99899H2.43713L2.69509 6.64388L2.17288 13.1978H5.029Z" fill="white"/>
</svg>
