<svg width="19" height="18" viewBox="0 0 19 18" fill="none" xmlns="http://www.w3.org/2000/svg">
<path d="M18.5393 13.7482L13.5191 9.00358C13.4045 8.89638 13.2549 8.84222 13.1052 8.84222H12.6211C12.4714 8.84222 12.3217 8.89638 12.2071 9.00358L7.01625 13.9107L4.16414 11.2151C4.04955 11.1068 3.89987 11.0526 3.75019 11.0526H3.26606C3.11638 11.0526 2.9667 11.1068 2.85211 11.214L0.170729 13.7482C0.0572994 13.8565 0 13.998 0 14.1395V17.1312C0 17.4363 0.26194 17.6838 0.584687 17.6838H18.1253C18.4481 17.6838 18.71 17.4363 18.71 17.1312V14.1395C18.71 13.998 18.6527 13.8565 18.5393 13.7482Z" fill="white"/>
<path d="M5.847 6.63121C7.78448 6.63121 9.35512 5.14676 9.35512 3.31561C9.35512 1.48445 7.78448 0 5.847 0C3.90952 0 2.33887 1.48445 2.33887 3.31561C2.33887 5.14676 3.90952 6.63121 5.847 6.63121Z" fill="white"/>
</svg>
