<svg width="12" height="13" viewBox="0 0 12 13" fill="none" xmlns="http://www.w3.org/2000/svg">
<path d="M10.0657 4.76367L9.52574 7.89567H10.3717C10.6477 7.89567 10.8757 7.99167 11.0557 8.18367C11.2477 8.36367 11.3437 8.59167 11.3437 8.86767C11.3437 9.13167 11.2477 9.34767 11.0557 9.51567C10.8757 9.68367 10.6477 9.76767 10.3717 9.76767H9.20174L8.84174 11.8917C8.80574 12.1197 8.70374 12.3057 8.53574 12.4497C8.37974 12.5937 8.18174 12.6657 7.94174 12.6657C7.65374 12.6657 7.41974 12.5757 7.23974 12.3957C7.07174 12.2157 6.98774 11.9817 6.98774 11.6937C6.98774 11.5857 6.99374 11.5077 7.00574 11.4597L7.29374 9.76767H4.34174L3.98174 11.8917C3.94574 12.1317 3.84374 12.3237 3.67574 12.4677C3.50774 12.5997 3.30374 12.6657 3.06374 12.6657C2.78774 12.6657 2.55974 12.5757 2.37974 12.3957C2.21174 12.2037 2.12774 11.9637 2.12774 11.6757C2.12774 11.5797 2.13374 11.5077 2.14574 11.4597L2.43374 9.76767H1.78574C1.50974 9.76767 1.27574 9.67767 1.08374 9.49767C0.903736 9.30567 0.813736 9.07167 0.813736 8.79567C0.813736 8.53167 0.903736 8.31567 1.08374 8.14767C1.27574 7.97967 1.50974 7.89567 1.78574 7.89567H2.75774L3.29774 4.76367H2.45174C2.17574 4.76367 1.94174 4.67367 1.74974 4.49367C1.56974 4.30167 1.47974 4.06767 1.47974 3.79167C1.47974 3.52767 1.56974 3.31167 1.74974 3.14367C1.94174 2.97567 2.17574 2.89167 2.45174 2.89167H3.60374L3.96374 0.839672C3.99974 0.611672 4.09574 0.425671 4.25174 0.281672C4.41974 0.137672 4.62374 0.0656714 4.86374 0.0656714C5.15174 0.0656714 5.37974 0.155671 5.54774 0.335671C5.72774 0.515672 5.81774 0.749672 5.81774 1.03767C5.81774 1.14567 5.81174 1.22367 5.79974 1.27167L5.52974 2.89167H8.46374L8.82374 0.839672C8.85974 0.599672 8.96174 0.413672 9.12974 0.281672C9.29774 0.137672 9.50174 0.0656714 9.74174 0.0656714C10.0177 0.0656714 10.2397 0.161672 10.4077 0.353672C10.5877 0.533672 10.6777 0.767672 10.6777 1.05567C10.6777 1.15167 10.6717 1.22367 10.6597 1.27167L10.3897 2.89167H11.0197C11.2957 2.89167 11.5237 2.98767 11.7037 3.17967C11.8957 3.35967 11.9917 3.58767 11.9917 3.86367C11.9917 4.12767 11.8957 4.34367 11.7037 4.51167C11.5237 4.67967 11.2957 4.76367 11.0197 4.76367H10.0657ZM8.15774 4.76367H5.20574L4.66574 7.89567H7.61774L8.15774 4.76367Z" fill="white"/>
</svg>
