<svg width="18" height="9" viewBox="0 0 18 9" fill="none" xmlns="http://www.w3.org/2000/svg">
<path d="M13.5 0H10.8C10.305 0 9.9 0.405 9.9 0.9C9.9 1.395 10.305 1.8 10.8 1.8H13.5C14.985 1.8 16.2 3.015 16.2 4.5C16.2 5.985 14.985 7.2 13.5 7.2H10.8C10.305 7.2 9.9 7.605 9.9 8.1C9.9 8.595 10.305 9 10.8 9H13.5C15.984 9 18 6.984 18 4.5C18 2.016 15.984 0 13.5 0ZM5.4 4.5C5.4 4.995 5.805 5.4 6.3 5.4H11.7C12.195 5.4 12.6 4.995 12.6 4.5C12.6 4.005 12.195 3.6 11.7 3.6H6.3C5.805 3.6 5.4 4.005 5.4 4.5ZM7.2 7.2H4.5C3.015 7.2 1.8 5.985 1.8 4.5C1.8 3.015 3.015 1.8 4.5 1.8H7.2C7.695 1.8 8.1 1.395 8.1 0.9C8.1 0.405 7.695 0 7.2 0H4.5C2.016 0 0 2.016 0 4.5C0 6.984 2.016 9 4.5 9H7.2C7.695 9 8.1 8.595 8.1 8.1C8.1 7.605 7.695 7.2 7.2 7.2Z" fill="white"/>
</svg>
