<svg width="20" height="20" viewBox="0 0 20 20" fill="none" xmlns="http://www.w3.org/2000/svg">
<path d="M17.039 2.94062C15.0018 0.903487 12.1149 -0.271298 8.94045 0.0536426C4.35378 0.516058 0.579474 4.24038 0.0670676 8.82704C-0.620307 14.8884 4.06634 20 9.97776 20C13.9645 20 17.3889 17.6629 18.9886 14.301C19.3885 13.4637 18.7886 12.5014 17.8638 12.5014C17.4014 12.5014 16.964 12.7513 16.764 13.1637C15.3518 16.2007 11.9649 18.1253 8.26557 17.3005C5.49108 16.6881 3.25399 14.426 2.66659 11.6515C1.61678 6.80241 5.30361 2.5032 9.97776 2.5032C12.0524 2.5032 13.902 3.36554 15.2518 4.72779L13.3646 6.61494C12.5773 7.4023 13.1272 8.75205 14.2395 8.75205H18.7262C19.4135 8.75205 19.9759 8.18966 19.9759 7.50228V3.0156C19.9759 1.9033 18.6262 1.34091 17.8388 2.12826L17.039 2.94062V2.94062Z" fill="#828282"/>
</svg>
