<svg width="20" height="20" viewBox="0 0 20 20" fill="none" xmlns="http://www.w3.org/2000/svg">
<path d="M17.0595 2.94061C15.0199 0.903487 12.1295 -0.271298 8.95122 0.0536426C4.35903 0.516058 0.580172 4.24038 0.0671484 8.82704C-0.621054 14.8884 4.07124 20 9.98978 20C13.9814 20 17.4099 17.6629 19.0115 14.301C19.4119 13.4637 18.8113 12.5014 17.8853 12.5014C17.4224 12.5014 16.9844 12.7513 16.7842 13.1637C15.3703 16.2007 11.9793 18.1253 8.27553 17.3005C5.49769 16.6881 3.25791 14.426 2.66981 11.6515C1.61873 6.80241 5.31 2.5032 9.98978 2.5032C12.0669 2.5032 13.9188 3.36554 15.2702 4.72779L13.3807 6.61494C12.5924 7.4023 13.143 8.75205 14.2566 8.75205H18.7487C19.4369 8.75205 20 8.18966 20 7.50228V3.0156C20 1.9033 18.6486 1.34091 17.8603 2.12826L17.0595 2.94061Z" fill="#828282"/>
</svg>
