<svg width="51" height="49" viewBox="0 0 51 49" fill="none" xmlns="http://www.w3.org/2000/svg">
<path d="M25.4825 38.6267L25.9997 38.9389L40.2009 47.509L40.202 47.5097C40.4964 47.6879 40.8423 47.4192 40.7704 47.1088L25.4825 38.6267ZM25.4825 38.6267L24.9656 38.9393L10.7918 47.5095L10.7914 47.5097C10.4969 47.688 10.1509 47.419 10.2231 47.1084L13.9862 30.9573L14.1231 30.3696L13.667 29.9746L1.14136 19.1245L1.14138 19.1245L1.13557 19.1195C0.884799 18.9056 1.00709 18.4915 1.34425 18.4592C1.34492 18.4591 1.3456 18.4591 1.34627 18.459L17.8489 17.0586L18.4495 17.0077L18.6849 16.4527L25.14 1.23516L25.1401 1.23518L25.1432 1.22767C25.269 0.924111 25.6969 0.924107 25.8228 1.22767L25.8228 1.22769L25.8259 1.23516L32.281 16.4527L32.5164 17.0077L33.1171 17.0586L49.6217 18.4592C49.6221 18.4592 49.6226 18.4593 49.623 18.4593C49.9649 18.4907 50.1042 18.9003 49.8485 19.1276C49.8479 19.1281 49.8473 19.1286 49.8467 19.1292L37.3264 29.9746L36.8703 30.3696L37.0072 30.9573L40.7703 47.1084L25.4825 38.6267Z" stroke="#F15A29" stroke-width="2"/>
</svg>
