<svg width="19" height="18" viewBox="0 0 19 18" fill="none" xmlns="http://www.w3.org/2000/svg">
<path fill-rule="evenodd" clip-rule="evenodd" d="M4.56519 5.55983C5.14726 5.20317 5.5983 4.65355 5.8293 3.99998H12.8374C13.2492 5.16518 14.3604 6 15.6667 6C17.3235 6 18.6667 4.65685 18.6667 3C18.6667 1.34315 17.3235 0 15.6667 0C14.3605 0 13.2492 0.834798 12.8374 1.99998H5.82929C5.41744 0.834798 4.30621 0 3 0C1.34315 0 0 1.34315 0 3C0 4.52411 1.13655 5.78277 2.60835 5.97467L4.28288 13.2278L4.35323 13.2116C5.09403 14.8834 5.49764 15.6582 7.66663 16.3332V14.3332C7.66663 14.3332 6.70823 14.1006 6.20866 12.7832L6.23162 12.7779L4.56519 5.55983ZM18.6667 14.6665C18.6667 16.3234 17.3236 17.6665 15.6667 17.6665C14.6267 17.6665 13.7103 17.1373 13.1721 16.3334H7.66669V14.3334H12.685C12.8507 12.8333 14.1225 11.6665 15.6667 11.6665C17.3236 11.6665 18.6667 13.0096 18.6667 14.6665Z" fill="#BDBDBD"/>
</svg>
