<svg width="22" height="22" viewBox="0 0 22 22" fill="none" xmlns="http://www.w3.org/2000/svg">
<path d="M10.91 1.90995C12.92 -0.100046 15.93 -0.510046 18.35 0.669954L14.72 4.29995C14.33 4.68995 14.33 5.31995 14.72 5.70995L16.31 7.29995C16.7 7.69995 17.33 7.69995 17.72 7.29995L21.35 3.66995C22.52 6.09995 22.11 9.08995 20.1 11.1C18.24 12.96 15.52 13.45 13.21 12.58L5.25 20.54C4.22 21.57 2.56 21.57 1.54 20.54C0.509997 19.51 0.509997 17.85 1.54 16.83L9.46 8.89995C8.54 6.55995 9.02 3.79995 10.91 1.90995Z" fill="#BDBDBD"/>
</svg>
