<svg width="70" height="70" viewBox="0 0 70 70" fill="none" xmlns="http://www.w3.org/2000/svg">
<path d="M5.33333 53.5006L5.47978 53.3541L20.0631 38.7708L20.4167 38.4173L20.7702 38.7708L37.6664 55.6655L37.6668 55.666C38.1396 56.1399 38.7554 56.375 39.375 56.375C39.9947 56.375 40.6106 56.1399 41.0835 55.6671C41.0835 55.667 41.0836 55.667 41.0836 55.667M5.33333 53.5006L41.4372 51.8962C42.5758 53.0355 42.5758 54.8812 41.4372 56.0205L41.0836 55.667M5.33333 53.5006V53.7077V61.25C5.33333 63.1347 6.86527 64.6667 8.75 64.6667H61.25C63.1347 64.6667 64.6667 63.1347 64.6667 61.25V37.6674V37.4603L64.5202 37.3139L52.8536 25.6472L52.5 25.2937L52.1465 25.6472L33.6666 44.1256L33.3131 44.4792L33.6666 44.8327L41.0835 52.2496M5.33333 53.5006L41.0835 52.2496M41.0836 55.667C42.027 54.7229 42.027 53.1938 41.0836 52.2497C41.0836 52.2497 41.0835 52.2496 41.0835 52.2496M41.0836 55.667L41.0835 52.2496M63.8131 29.7709L64.6667 30.6244V29.4173V8.75C64.6667 6.86527 63.1347 5.33333 61.25 5.33333H8.75C6.86528 5.33333 5.33333 6.86528 5.33333 8.75V45.459V46.6661L6.18689 45.8125L18.7079 33.2915C18.708 33.2915 18.708 33.2914 18.708 33.2914C19.6521 32.348 21.1812 32.348 22.1253 33.2914C22.1253 33.2914 22.1254 33.2915 22.1254 33.2915L29.5423 40.7084L29.8958 41.0619L30.2494 40.7084L50.7913 20.1665C50.7913 20.1665 50.7913 20.1664 50.7914 20.1664C51.7354 19.223 53.2646 19.223 54.2086 20.1664C54.2087 20.1664 54.2087 20.1665 54.2087 20.1665L63.8131 29.7709ZM8.75 0.5H61.25C65.7996 0.5 69.5 4.2004 69.5 8.75V61.25C69.5 65.7996 65.7996 69.5 61.25 69.5H8.75C4.2004 69.5 0.5 65.7996 0.5 61.25V8.75C0.5 4.2004 4.2004 0.5 8.75 0.5Z" fill="#F15A29" stroke="#F15A29"/>
</svg>
